# File created by Blade
# Date/Time:  Wed Jan 21 18:02:28 2015
#---------------------------------------------------------
:version 1.10
:name HOM
:units
  mass 1.0
  length 1.000000
  angle deg
:documentation
     Acclaim Skeleton File
:root
   axis xyz
   order TX TY TZ RX RY RZ
   position 0.000000 0.000000 0.000000
   orientation 0 0 0
:bonedata
   begin
      id 1
      name Spine_dum
      direction 0.000000 1.000000 0.000000
      length 7.067664
      axis 0.0 0.0 0.0 xyz
   end
   begin
      id 2
      name LeftUpLeg_dum
      direction 1.000000 0.000000 0.000000
      length 4.013002
      axis 0.0 0.0 0.0 xyz
   end
   begin
      id 3
      name RightUpLeg_dum
      direction -1.000000 0.000000 0.000000
      length 4.013002
      axis 0.0 0.0 0.0 xyz
   end
   begin
      id 4
      name Spine
      direction 0.000000 1.000000 0.000000
      length 0.000000
      axis 0.0 0.0 0.0 xyz
      dof rx ry rz
   end
   begin
      id 5
      name Spine_dum1
      direction 0.000000 1.000000 0.000000
      length 15.039886
      axis 0.0 0.0 0.0 xyz
   end
   begin
      id 6
      name Spine_dum2
      direction 0.000000 1.000000 0.000000
      length 10.530368
      axis 0.0 0.0 0.0 xyz
   end
   begin
      id 7
      name Spine_dum3
      direction 0.000000 1.000000 0.000000
      length 10.530368
      axis 0.0 0.0 0.0 xyz
   end
   begin
      id 8
      name Head
      direction 0.000000 1.000000 0.000000
      length 4.527550
      axis 0.0 0.0 0.0 xyz
      dof rx ry rz
   end
   begin
      id 9
      name LeftShoulder
      direction 1.000000 0.000000 0.000000
      length 7.028855
      axis 0.0 0.0 -90.0 xyz
      dof rx ry rz
   end
   begin
      id 10
      name LeftArm
      direction 1.000000 0.000000 0.000000
      length 10.797705
      axis 0.0 0.0 -90.0 xyz
      dof rx ry rz
   end
   begin
      id 11
      name LeftForeArm
      direction 1.000000 0.000000 0.000000
      length 7.907442
      axis 0.0 0.0 -90.0 xyz
      dof ry rz rx
   end
   begin
      id 12
      name LeftHand
      direction 0.000000 0.000000 0.000000
      length 0.000000
      axis 0.0 0.0 -90.0 xyz
      dof rx ry rz
   end
   begin
      id 13
      name LeftHand_dum1
      direction 0.000000 0.000000 0.000000
      length 0.000000
      axis 0.0 0.0 -90.0 xyz
   end
   begin
      id 14
      name LeftHand_dum2
      direction 1.000000 0.000000 0.000000
      length 3.937000
      axis 0.0 0.0 -90.0 xyz
   end
   begin
      id 15
      name LeftHandThumb1
      direction 0.000000 0.000000 1.000000
      length 3.937000
      axis 0.0 0.0 -90.0 xyz
      dof rx rz ry
   end
   begin
      id 16
      name RightShoulder
      direction -1.000000 0.000000 0.000000
      length 7.028855
      axis 0.0 0.0 90.0 xyz
      dof rx ry rz
   end
   begin
      id 17
      name RightArm
      direction -1.000000 0.000000 0.000000
      length 10.797705
      axis 0.0 0.0 90.0 xyz
      dof rx ry rz
   end
   begin
      id 18
      name RightForeArm
      direction -1.000000 0.000000 0.000000
      length 7.907442
      axis 0.0 0.0 90.0 xyz
      dof ry rz rx
   end
   begin
      id 19
      name RightHand
      direction 0.000000 0.000000 0.000000
      length 0.000000
      axis 0.0 0.0 90.0 xyz
      dof rx ry rz
   end
   begin
      id 20
      name RightHand_dum1
      direction 0.000000 0.000000 0.000000
      length 0.000000
      axis 0.0 0.0 90.0 xyz
   end
   begin
      id 21
      name RightHand_dum2
      direction -1.000000 0.000000 0.000000
      length 3.937000
      axis 0.0 0.0 90.0 xyz
   end
   begin
      id 22
      name RightHandThumb1
      direction 0.000000 0.000000 1.000000
      length 3.937000
      axis 0.0 0.0 90.0 xyz
      dof rx rz ry
   end
   begin
      id 23
      name LeftUpLeg
      direction 0.000000 -1.000000 0.000000
      length 16.899758
      axis 0.0 0.0 0.0 xyz
      dof rx ry rz
   end
   begin
      id 24
      name LeftLeg
      direction 0.000000 -1.000000 0.000000
      length 17.389183
      axis 0.0 0.0 0.0 xyz
      dof rx ry rz
   end
   begin
      id 25
      name LeftFoot
      direction 0.000000 -0.258819 0.965926
      length 4.924528
      axis 15.0 0.0 0.0 xyz
      dof rx ry rz
   end
   begin
      id 26
      name LeftToeBase
      direction 0.000000 0.000000 1.000000
      length 2.952750
      axis 0.0 0.0 0.0 xyz
      dof rx ry rz
   end
   begin
      id 27
      name RightUpLeg
      direction 0.000000 -1.000000 0.000000
      length 16.899758
      axis 0.0 0.0 0.0 xyz
      dof rx ry rz
   end
   begin
      id 28
      name RightLeg
      direction 0.000000 -1.000000 0.000000
      length 17.389183
      axis 0.0 0.0 0.0 xyz
      dof rx ry rz
   end
   begin
      id 29
      name RightFoot
      direction 0.000000 -0.258819 0.965926
      length 4.924528
      axis 15.0 0.0 0.0 xyz
      dof rx ry rz
   end
   begin
      id 30
      name RightToeBase
      direction 0.000000 0.000000 1.000000
      length 2.952750
      axis 0.0 0.0 0.0 xyz
      dof rx ry rz
   end
:hierarchy
   begin
      root Spine_dum LeftUpLeg_dum RightUpLeg_dum
      Spine_dum Spine
      LeftUpLeg_dum LeftUpLeg
      RightUpLeg_dum RightUpLeg
      Spine Spine_dum1 Spine_dum2 Spine_dum3
      Spine_dum1 Head
      Spine_dum2 LeftShoulder
      Spine_dum3 RightShoulder
      LeftShoulder LeftArm
      LeftArm LeftForeArm
      LeftForeArm LeftHand
      LeftHand LeftHand_dum1 LeftHand_dum2
      LeftHand_dum1 LeftHandThumb1
      RightShoulder RightArm
      RightArm RightForeArm
      RightForeArm RightHand
      RightHand RightHand_dum1 RightHand_dum2
      RightHand_dum1 RightHandThumb1
      LeftUpLeg LeftLeg
      LeftLeg LeftFoot
      LeftFoot LeftToeBase
      RightUpLeg RightLeg
      RightLeg RightFoot
      RightFoot RightToeBase
   end

# File created by Blade
# Date/Time:  Wed Jan 21 18:02:19 2015
# Frame Rate: 120.000 fps
#------------------------------------------------------
:FULLY-SPECIFIED
:DEGREES
86
root 18.132495 35.796880 -18.809042 -179.242483 2.038289 -178.766415
Spine 0.981556 1.464403 -0.722361
Head 13.700059 -3.290514 4.481516
LeftShoulder -1.110579 -26.034156 -0.911353
LeftArm 3.308163 7.549185 -50.742118
LeftForeArm 4.646935 -0.000000 0.279197
LeftHand -3.120979 -0.000000 -2.237444
LeftHandThumb1 -26.253704 0.000000 33.147579
RightShoulder -6.966480 -9.301657 5.345059
RightArm 23.083137 12.678048 59.800027
RightForeArm -34.508777 -0.000000 24.992988
RightHand -5.797697 -0.000000 -6.865957
RightHandThumb1 -24.326973 -0.000000 -32.862282
LeftUpLeg 0.538900 8.348373 -0.964578
LeftLeg 1.261576 -0.000000 -0.000000
LeftFoot -19.389703 30.456400 -8.680872
LeftToeBase 23.568689 -0.000000 -0.000000
RightUpLeg -9.662886 -4.092763 0.824281
RightLeg 24.991513 -0.000000 -0.000000
RightFoot -33.784875 -22.420373 24.064536
RightToeBase 14.161194 -0.000000 -0.000000
87
root 18.147913 35.795360 -18.785344 -179.475509 1.939874 -178.799093
Spine 1.283573 1.260907 -0.818430
Head 13.726807 -3.214968 4.460181
LeftShoulder -1.149801 -26.029418 -1.032048
LeftArm 2.768829 7.240371 -51.869368
LeftForeArm 4.400179 -0.000000 0.240151
LeftHand -2.963746 0.000000 -2.555630
LeftHandThumb1 -26.253704 0.000000 33.147579
RightShoulder -6.823717 -9.302096 5.659927
RightArm 22.667086 11.961178 60.492426
RightForeArm -33.944066 -0.000000 24.694950
RightHand -5.709900 -0.000000 -5.882013
RightHandThumb1 -24.326973 -0.000000 -32.862282
LeftUpLeg 0.641650 8.186221 -0.944596
LeftLeg 1.427530 -0.000000 -0.000000
LeftFoot -19.429729 30.494979 -8.639194
LeftToeBase 23.548581 -0.000000 -0.000000
RightUpLeg -9.516124 -4.079603 1.028690
RightLeg 25.804822 -0.000000 -0.000000
RightFoot -34.147629 -22.000396 24.155455
RightToeBase 14.264589 -0.000000 -0.000000
88
root 18.165923 35.793041 -18.758721 -179.636593 1.836227 -178.833021
Spine 1.492337 1.104832 -0.906447
Head 13.735573 -3.262592 4.366049
LeftShoulder -1.204275 -25.992785 -1.161142
LeftArm 2.234333 6.948258 -53.012114
LeftForeArm 4.131263 -0.000000 0.322089
LeftHand -2.967604 -0.000000 -2.641486
LeftHandThumb1 -26.253704 0.000000 33.147579
RightShoulder -6.832223 -9.370937 5.990953
RightArm 22.415188 11.073130 61.083116
RightForeArm -33.270404 -0.000000 24.179814
RightHand -5.303157 -0.000000 -5.281434
RightHandThumb1 -24.326973 -0.000000 -32.862282
LeftUpLeg 0.663468 8.040866 -0.931847
LeftLeg 1.603435 -0.000000 -0.000000
LeftFoot -19.482789 30.543640 -8.590472
LeftToeBase 23.530755 -0.000000 -0.000000
RightUpLeg -9.412439 -4.086394 1.247346
RightLeg 26.550601 -0.000000 -0.000000
RightFoot -34.392868 -21.661857 24.261921
RightToeBase 14.385603 -0.000000 -0.000000
89
root 18.187395 35.789656 -18.732505 -179.729134 1.768328 -178.865432
Spine 1.583978 0.965282 -0.982788
Head 13.804682 -3.234104 4.266248
LeftShoulder -1.330874 -25.856087 -1.286538
LeftArm 1.754269 6.500824 -54.097834
LeftForeArm 4.046680 -0.000000 0.410963
LeftHand -2.889506 -0.000000 -2.817900
LeftHandThumb1 -26.253704 0.000000 33.147579
RightShoulder -6.805593 -9.544117 6.240837
RightArm 22.313308 10.873973 62.155370
RightForeArm -33.491149 -0.000000 23.536246
RightHand -4.973298 -0.000000 -4.442797
RightHandThumb1 -24.326973 -0.000000 -32.862282
LeftUpLeg 0.599179 8.027082 -0.916798
LeftLeg 1.823179 -0.000000 -0.000000
LeftFoot -19.546244 30.491012 -8.525837
LeftToeBase 23.462235 -0.000000 -0.000000
RightUpLeg -9.349808 -4.074077 1.465376
RightLeg 27.248032 -0.000000 -0.000000
RightFoot -34.544802 -21.210691 24.400679
RightToeBase 14.481822 -0.000000 -0.000000
90
root 18.210738 35.785987 -18.718912 -179.946797 1.642518 -178.907044
Spine 1.819042 0.876516 -1.067314
Head 13.831111 -3.188136 4.217184
LeftShoulder -1.359424 -25.754412 -1.452962
LeftArm 1.256778 6.110068 -55.175268
LeftForeArm 3.884687 -0.000000 0.496695
LeftHand -2.849324 -0.000000 -2.969528
LeftHandThumb1 -26.253704 0.000000 33.147579
RightShoulder -6.892159 -9.683713 6.548082
RightArm 22.096889 10.125028 62.783951
RightForeArm -33.073016 -0.000000 22.976763
RightHand -4.764429 -0.000000 -3.539049
RightHandThumb1 -24.326973 -0.000000 -32.862282
LeftUpLeg 0.691599 7.982696 -0.886169
LeftLeg 2.016671 -0.000000 -0.000000
LeftFoot -19.593676 30.408405 -8.432795
LeftToeBase 23.472988 -0.000000 -0.000000
RightUpLeg -9.071742 -4.131172 1.667949
RightLeg 27.826661 -0.000000 -0.000000
RightFoot -34.611556 -20.765983 24.562857
RightToeBase 14.826124 -0.000000 -0.000000
91
root 18.238214 35.780622 -18.702543 -180.079348 1.521006 -178.971833
Spine 1.945562 0.736067 -1.189760
Head 13.828182 -3.157233 4.149511
LeftShoulder -1.551348 -25.630533 -1.543100
LeftArm 0.812471 5.712925 -56.255114
LeftForeArm 3.750820 -0.000000 0.554124
LeftHand -2.695276 -0.000000 -2.811371
LeftHandThumb1 -26.253704 0.000000 33.147579
RightShoulder -6.944057 -9.784974 6.839176
RightArm 21.822631 9.352351 63.381041
RightForeArm -32.949392 0.000000 22.358351
RightHand -4.385456 -0.000000 -2.769093
RightHandThumb1 -24.326973 -0.000000 -32.862282
LeftUpLeg 0.684848 8.009055 -0.886905
LeftLeg 2.199575 -0.000000 -0.000000
LeftFoot -19.636493 30.289641 -8.415271
LeftToeBase 23.374198 -0.000000 -0.000000
RightUpLeg -8.849188 -4.161207 1.864575
RightLeg 28.313771 -0.000000 -0.000000
RightFoot -34.528341 -20.391580 24.706315
RightToeBase 14.943369 -0.000000 -0.000000
92
root 18.267644 35.774850 -18.688491 -180.181918 1.397244 -179.037934
Spine 1.993176 0.676859 -1.299863
Head 13.885661 -3.221433 4.029927
LeftShoulder -1.598705 -25.501489 -1.726969
LeftArm 0.276213 5.412768 -57.250066
LeftForeArm 3.552653 -0.000000 0.661459
LeftHand -2.557563 0.000000 -2.931117
LeftHandThumb1 -26.253704 0.000000 33.147579
RightShoulder -7.003851 -9.905616 7.105802
RightArm 21.508032 8.856694 64.049663
RightForeArm -33.020117 0.000000 21.703141
RightHand -3.911896 -0.000000 -1.712615
RightHandThumb1 -24.326973 -0.000000 -32.862282
LeftUpLeg 0.641731 8.014924 -0.888086
LeftLeg 2.409270 -0.000000 -0.000000
LeftFoot -19.650020 30.144965 -8.344572
LeftToeBase 23.288579 -0.000000 -0.000000
RightUpLeg -8.600856 -4.184286 2.049152
RightLeg 28.687498 -0.000000 -0.000000
RightFoot -34.341134 -19.929739 24.818974
RightToeBase 15.082068 -0.000000 -0.000000
93
root 18.297721 35.770078 -18.688017 -180.375422 1.085176 -179.076140
Spine 2.143489 0.438368 -1.365567
Head 13.900099 -3.205811 3.979314
LeftShoulder -1.707728 -25.354897 -1.886832
LeftArm -0.224404 5.016010 -58.265262
LeftForeArm 3.359996 -0.000000 0.761683
LeftHand -2.436676 -0.000000 -3.112099
LeftHandThumb1 -26.253704 0.000000 33.147579
RightShoulder -7.089158 -10.076308 7.379097
RightArm 21.110749 7.823142 64.375755
RightForeArm -32.385870 -0.000000 21.230000
RightHand -3.801273 -0.000000 -0.853301
RightHandThumb1 -24.326973 -0.000000 -32.862282
LeftUpLeg 0.688954 7.832724 -0.845322
LeftLeg 2.637708 -0.000000 -0.000000
LeftFoot -19.706170 30.027718 -8.274722
LeftToeBase 23.405940 -0.000000 -0.000000
RightUpLeg -8.139698 -4.492068 2.236018
RightLeg 28.887618 -0.000000 -0.000000
RightFoot -33.998965 -19.477970 24.774304
RightToeBase 15.229932 -0.000000 -0.000000
94
root 18.333744 35.761987 -18.675232 -180.444761 1.052517 -179.167116
Spine 2.141734 0.493673 -1.521366
Head 13.932410 -3.267344 3.908065
LeftShoulder -1.789333 -25.242411 -2.035256
LeftArm -0.782345 4.788888 -59.214853
LeftForeArm 3.044128 -0.000000 0.836112
LeftHand -2.296118 -0.000000 -3.007295
LeftHandThumb1 -26.253704 0.000000 33.147579
RightShoulder -7.158984 -10.120373 7.651073
RightArm 20.554418 6.932543 64.782063
RightForeArm -31.883052 -0.000000 20.816236
RightHand -3.757213 -0.000000 0.056556
RightHandThumb1 -24.326973 -0.000000 -32.862282
LeftUpLeg 0.604092 8.022493 -0.859720
LeftLeg 2.883084 -0.000000 -0.000000
LeftFoot -19.764906 29.858566 -8.023093
LeftToeBase 23.722395 -0.000000 -0.000000
RightUpLeg -7.859909 -4.443845 2.391783
RightLeg 29.078926 -0.000000 -0.000000
RightFoot -33.471784 -19.075545 24.649987
RightToeBase 15.355449 -0.000000 -0.000000
95
root 18.373253 35.752484 -18.663540 -180.472971 1.066144 -179.268481
Spine 2.064054 0.605410 -1.698457
Head 13.970602 -3.291981 3.901100
LeftShoulder -1.899565 -25.107695 -2.149899
LeftArm -1.343741 4.629969 -60.154957
LeftForeArm 2.692175 0.000000 0.928119
LeftHand -2.197719 -0.000000 -3.112151
LeftHandThumb1 -26.253704 0.000000 33.147579
RightShoulder -7.161706 -10.143271 7.873565
RightArm 19.894156 6.399462 65.368749
RightForeArm -31.650931 -0.000000 20.347593
RightHand -3.522933 -0.000000 0.809418
RightHandThumb1 -24.326973 -0.000000 -32.862282
LeftUpLeg 0.501765 8.225681 -0.887934
LeftLeg 3.096112 -0.000000 -0.000000
LeftFoot -19.815571 29.639274 -7.957418
LeftToeBase 23.967848 -0.000000 -0.000000
RightUpLeg -7.570005 -4.293093 2.541347
RightLeg 29.133220 -0.000000 -0.000000
RightFoot -32.880923 -18.622923 24.792744
RightToeBase 15.632840 -0.000000 -0.000000
96
root 18.413344 35.742633 -18.657926 -180.523605 0.932153 -179.381052
Spine 2.006561 0.633202 -1.881480
Head 13.989478 -3.399836 3.888650
LeftShoulder -1.950752 -24.973527 -2.301993
LeftArm -1.934625 4.323179 -61.051324
LeftForeArm 2.533622 0.000000 1.042671
LeftHand -2.147678 -0.000000 -2.982048
LeftHandThumb1 -26.253704 0.000000 33.147579
RightShoulder -7.243567 -10.301349 8.123726
RightArm 19.337916 5.860264 65.907161
RightForeArm -30.997080 0.000000 19.890416
RightHand -3.333080 -0.000000 1.747499
RightHandThumb1 -24.326973 -0.000000 -32.862282
LeftUpLeg 0.410063 8.257318 -0.927170
LeftLeg 3.324339 -0.000000 -0.000000
LeftFoot -19.867858 29.504304 -7.904199
LeftToeBase 23.999667 -0.000000 -0.000000
RightUpLeg -7.167122 -4.381614 2.665082
RightLeg 29.007784 -0.000000 -0.000000
RightFoot -32.054060 -18.300273 24.720645
RightToeBase 15.635348 -0.000000 -0.000000
97
root 18.454236 35.731750 -18.658168 -180.553808 0.760268 -179.491408
Spine 1.887410 0.621802 -2.047067
Head 14.039017 -3.510771 3.841738
LeftShoulder -2.025246 -24.862260 -2.488568
LeftArm -2.541279 4.413444 -61.905017
LeftForeArm 2.155798 0.000000 1.107391
LeftHand -2.133101 -0.000000 -2.989108
LeftHandThumb1 -26.253704 0.000000 33.147579
RightShoulder -7.377160 -10.440403 8.291403
RightArm 18.855492 5.552889 66.615634
RightForeArm -30.647993 -0.000000 19.211253
RightHand -3.022142 -0.000000 2.586639
RightHandThumb1 -24.326973 -0.000000 -32.862282
LeftUpLeg 0.315343 8.254662 -0.972976
LeftLeg 3.510835 -0.000000 -0.000000
LeftFoot -20.002538 29.381417 -8.010273
LeftToeBase 23.887314 -0.000000 -0.000000
RightUpLeg -6.706404 -4.529258 2.769244
RightLeg 28.693716 -0.000000 -0.000000
RightFoot -31.000635 -18.018112 24.678559
RightToeBase 15.810060 -0.000000 -0.000000
98
root 18.495954 35.717331 -18.648602 -180.497776 0.632241 -179.668756
Spine 1.679119 0.646904 -2.320662
Head 14.048927 -3.544758 3.895960
LeftShoulder -2.110099 -24.748653 -2.595273
LeftArm -3.170031 4.427452 -62.750857
LeftForeArm 1.955127 -0.000000 1.154234
LeftHand -2.013672 -0.000000 -3.160036
LeftHandThumb1 -26.253704 0.000000 33.147579
RightShoulder -7.417771 -10.593497 8.512888
RightArm 18.189045 5.029912 67.149390
RightForeArm -29.869882 -0.000000 18.809053
RightHand -2.991979 -0.000000 3.359415
RightHandThumb1 -24.326973 -0.000000 -32.862282
LeftUpLeg 0.126986 8.177529 -1.101266
LeftLeg 3.706149 -0.000000 -0.000000
LeftFoot -20.072233 29.354863 -8.031635
LeftToeBase 23.858068 -0.000000 -0.000000
RightUpLeg -6.346305 -4.705623 2.801985
RightLeg 28.297321 -0.000000 -0.000000
RightFoot -29.709600 -17.868615 24.685961
RightToeBase 16.090648 -0.000000 -0.000000
